<svg width="21" height="21" viewBox="0 0 21 21" fill="none" xmlns="http://www.w3.org/2000/svg">
<g clip-path="url(#clip0_8153_218)">
<path d="M4.88848 6.75586H0.672694C0.485591 6.75586 0.333984 6.90753 0.333984 7.09457V20.6381C0.333984 20.8252 0.485591 20.9768 0.672694 20.9768H4.88848C5.07558 20.9768 5.22719 20.8252 5.22719 20.6381V7.09457C5.22719 6.90753 5.07558 6.75586 4.88848 6.75586Z" fill="white"/>
<path d="M2.78189 0.0229492C1.24794 0.0229492 0 1.26954 0 2.80179C0 4.33472 1.24794 5.58178 2.78189 5.58178C4.31462 5.58178 5.56154 4.33466 5.56154 2.80179C5.56161 1.26954 4.31462 0.0229492 2.78189 0.0229492Z" fill="white"/>
<path d="M15.6122 6.41895C13.919 6.41895 12.6673 7.14683 11.9081 7.97389V7.09426C11.9081 6.90723 11.7565 6.75556 11.5694 6.75556H7.53207C7.34497 6.75556 7.19336 6.90723 7.19336 7.09426V20.6378C7.19336 20.8249 7.34497 20.9765 7.53207 20.9765H11.7386C11.9257 20.9765 12.0773 20.8249 12.0773 20.6378V13.9369C12.0773 11.6788 12.6907 10.7991 14.2647 10.7991C15.979 10.7991 16.1152 12.2094 16.1152 14.0531V20.6378C16.1152 20.8249 16.2669 20.9766 16.454 20.9766H20.6621C20.8492 20.9766 21.0008 20.8249 21.0008 20.6378V13.209C21.0008 9.85136 20.3606 6.41895 15.6122 6.41895Z" fill="white"/>
</g>
<defs>
<clipPath id="clip0_8153_218">
<rect width="21" height="21" fill="white"/>
</clipPath>
</defs>
</svg>
