<svg width="21" height="22" viewBox="0 0 21 22" fill="none" xmlns="http://www.w3.org/2000/svg">
<path d="M21 19.5672L16.6415 15.2278C17.8552 13.6415 18.5055 11.699 18.4906 9.70494C18.4981 8.49406 18.2641 7.29373 17.8022 6.17357C17.3403 5.0534 16.6595 4.03569 15.7995 3.17945C14.9395 2.32321 13.9174 1.64548 12.7923 1.18555C11.6672 0.725631 10.4616 0.492668 9.24538 0.500176C8.02918 0.492668 6.82358 0.725631 5.69849 1.18555C4.57341 1.64548 3.55123 2.32321 2.69122 3.17945C1.83122 4.03569 1.15051 5.0534 0.688567 6.17357C0.226622 7.29373 -0.00736404 8.49406 0.000176621 9.70494C-0.00736404 10.9158 0.226622 12.1162 0.688567 13.2363C1.15051 14.3565 1.83122 15.3742 2.69122 16.2304C3.55123 17.0867 4.57341 17.7644 5.69849 18.2243C6.82358 18.6843 8.02918 18.9172 9.24538 18.9097C11.2482 18.9246 13.1992 18.2771 14.7925 17.0688L19.151 21.4081L21 19.5672ZM2.64166 9.70494C2.63301 8.83913 2.79792 7.98029 3.12672 7.17871C3.45553 6.37712 3.94163 5.64889 4.55657 5.03664C5.17151 4.42439 5.90294 3.94041 6.70805 3.61305C7.51316 3.28568 8.37576 3.1215 9.24538 3.13011C10.115 3.1215 10.9776 3.28568 11.7827 3.61305C12.5878 3.94041 13.3193 4.42439 13.9342 5.03664C14.5491 5.64889 15.0352 6.37712 15.364 7.17871C15.6928 7.98029 15.8578 8.83913 15.8491 9.70494C15.8578 10.5708 15.6928 11.4296 15.364 12.2312C15.0352 13.0328 14.5491 13.761 13.9342 14.3732C13.3193 14.9855 12.5878 15.4695 11.7827 15.7968C10.9776 16.1242 10.115 16.2884 9.24538 16.2798C8.37576 16.2884 7.51316 16.1242 6.70805 15.7968C5.90294 15.4695 5.17151 14.9855 4.55657 14.3732C3.94163 13.761 3.45553 13.0328 3.12672 12.2312C2.79792 11.4296 2.63301 10.5708 2.64166 9.70494Z" fill="black"/>
</svg>
